<svg viewBox="0 57.283 211.94 113.937" xmlns="http://www.w3.org/2000/svg">
  <defs>
    <style>.cls-1{fill:#ef5228}</style>
  </defs>
  <path d="M12 66.47h28.8c7.65 0 12.6 4 12.6 14.1v25.19c0 7.5-5 10.95-7.35 11.7 3.15.9 8.85 4.05 8.85 13v30.6c0 11.1-5 16.95-14.25 16.95H12zm19 14.1v31.79h1.35c1.65 0 2.25-.9 2.25-2.85V83.27c0-2-.3-2.7-2.25-2.7zm0 45.59v37.35h1.8c1.95 0 2.25-.9 2.25-2.85v-31.5c0-2.1-.45-3-2.25-3zM76.22 66.47l.15 93.89h12l-.15 17.7H57.33V66.47zM133.37 157.51c0 14-7.8 21.6-20.1 21.6h-3.15c-13.05 0-20.24-8-20.24-21.6v-70c0-13.65 6.14-22 20.24-22h3c14.1 0 20.25 8.7 20.25 22zm-19.5-72.14c0-2.1-.6-3.3-2.25-3.3s-2.1 1.05-2.1 3.3v73.79c0 2 .6 3 2.1 3s2.25-1 2.25-3zM150.93 179.11c-10.05 0-14.85-8.55-14.85-18.45V84.77c0-10.5 5.1-19.35 20.1-19.35h2.54c15.3 0 19.5 8.85 19.5 17.85v25h-18.29V84c0-1.8-.46-2.85-2.25-2.85s-2.1 1-2.1 2.85v76.19c0 2.25.89 3.45 2.69 3.45s2.7-1.2 2.7-3.45v-33.3h-3.9v-14.53H179v65.7h-12.78a47.14 47.14 0 00-1.95-7.05c-2.55 3.9-6.59 8.1-12.89 8.1zM181.37 161.86v-29.25H200v27.9c0 1.8.45 3 1.95 3 1.65 0 2.1-1.2 2.1-3.15v-21.75c0-3.6-.45-5.1-3.3-7.65l-9.75-8.4c-6.45-5.4-9.15-11.55-9.15-20V82.82c0-10.35 5.55-17.4 19.05-17.4h4.35c13.65 0 18 6.9 18 15.9v24.59h-18.3V82.22c0-1.65-.6-2.4-1.95-2.4s-1.95.75-1.95 2.4v19c0 3 .6 4.2 3 6.3l9.6 8.4c7.65 6.3 10.35 11.4 10.35 21.15v22.2c0 11.85-6 19.8-19.65 19.8H200c-12.48.04-18.63-5.81-18.63-17.21z" transform="matrix(1, 0, 0, 1, -12.03, -7.89)"/>
</svg>
