<svg viewBox="0 0 211.94 50.899" xmlns="http://www.w3.org/2000/svg">
  <defs>
    <style>.cls-1{fill:#ef5228}</style>
  </defs>
  <path class="cls-1" d="M.64 22.91V0h6.01v17.19h9.61v5.72H.64zM18.7 0h5.98v22.91H18.7z"/>
  <path class="cls-1" d="M45.84 21.28v4.57h3.1c2.78 0 3.61-.8 3.61-2.3s-1-2.27-3.58-2.27zm0-8.79v4.35h3.42c2 0 3-.71 3-2.24s-.86-2.11-3-2.11zM40.12 30.8V7.89H49c6.23 0 9 2.11 9 5.94 0 2.66-1 4.28-2.81 5.18a5 5 0 013.32 5.11c0 4.25-2.65 6.68-8.53 6.68zM66.55 12.81v5.3h3.35c2.14 0 3.23-1 3.23-2.71s-1-2.59-3.19-2.59zm0 10.32v7.67h-5.76V7.89h9.27c6.46 0 9 2.84 9 7.13 0 2.9-1.21 4.69-3.29 5.68 1.82.8 2.78 2.34 2.78 5.18v3.64a1.48 1.48 0 00.54 1.28h-6a1.71 1.71 0 01-.52-1.37V26.1c0-2.23-.86-3-3.16-3zM90.83 14.6l-2.3 7.4h4.67zm3.9 12.17H87.1l-1.25 4h-5.91l8-22.91h5.94l8 22.91H96zM109.24 12.81v5.3h3.36c2.14 0 3.22-1 3.22-2.71s-.95-2.59-3.19-2.59zm0 10.32v7.67h-5.75V7.89h9.27c6.45 0 9 2.84 9 7.13 0 2.9-1.22 4.69-3.29 5.68 1.82.8 2.78 2.34 2.78 5.18v3.64a1.48 1.48 0 00.54 1.28h-6a1.7 1.7 0 01-.51-1.37V26.1c0-2.23-.86-3-3.16-3z" transform="matrix(1, 0, 0, 1, -12.03, -7.89)"/>
  <path class="cls-1" d="M117.61 22.91V14l-7.06-14h6.2l3.96 8.25L124.86 0h6.17l-7.35 14.09v8.82h-6.07z"/>
  <path class="cls-1" d="M25.74 47.23v-1.85c0-3.9-1.15-5.78-3.81-5.78s-3.8 2-3.8 5.75v1.88c0 3.77 1.12 5.69 3.8 5.69s3.81-1.85 3.81-5.69M12 47.55v-2.46c0-7.16 4-10.73 9.9-10.73s9.91 3.54 9.91 10.73v2.46c0 7.26-4 10.64-9.94 10.64-6.26 0-9.87-3.35-9.87-10.64" transform="matrix(1, 0, 0, 1, -12.03, -7.89)"/>
  <path class="cls-1" d="M28.28 41.77v8.05h-5.72V26.91h15.5v5.21h-9.78v4.44h9.33v5.21h-9.33z"/>
  <path class="cls-1" d="M58.4 47.84v-2.91c0-7.09 3.86-10.57 10-10.57s9.49 2.9 9.81 8.91V44H72v-.35c-.16-2.65-1.18-4-3.64-4-2.69 0-3.9 1.85-3.9 5.72v2c0 3.67 1.25 5.46 3.9 5.46 2.43 0 3.48-1.47 3.67-4.19v-.41h6.23v.58c-.28 6.45-3.77 9.45-10.06 9.45s-9.8-3.39-9.8-10.42M93.78 47.23v-1.85c0-3.9-1.15-5.78-3.81-5.78s-3.8 2-3.8 5.75v1.88c0 3.77 1.12 5.69 3.8 5.69s3.81-1.85 3.81-5.69m-13.71.32v-2.46c0-7.16 4-10.73 9.9-10.73s9.91 3.54 9.91 10.73v2.46c0 7.26-4 10.64-9.94 10.64-6.26 0-9.87-3.35-9.87-10.64" transform="matrix(1, 0, 0, 1, -12.03, -7.89)"/>
  <path class="cls-1" d="M96.07 36.08v13.74H90.6V26.91h5.5l8.37 13.52V26.91h5.47v22.91h-5.34l-8.53-13.74z"/>
  <path class="cls-1" d="M138.87 52.41c-.52 3.19-2.4 5.78-6.39 5.78-5.34 0-7.77-3.19-7.77-10.48V45c0-7.19 3.9-10.61 10.07-10.61 6 0 9.14 3 9.26 8.7v.16h-5.94c-.1-2.27-1-3.58-3.42-3.58-2.75 0-3.93 1.76-3.93 5.63v2.24c0 4.18 1.18 5.62 3.9 5.62 2.3 0 3.45-1.57 3.58-3.61h-4v-4H144v12.16h-4.66zM152.8 39.72V45h3.36c2.14 0 3.22-1 3.22-2.72s-.95-2.59-3.19-2.59zm0 10.32v7.67h-5.75V34.8h9.27c6.45 0 9 2.84 9 7.13 0 2.9-1.22 4.69-3.29 5.68 1.82.8 2.78 2.34 2.78 5.18v3.64a1.46 1.46 0 00.54 1.28h-6a1.69 1.69 0 01-.51-1.37V53c0-2.24-.86-3-3.16-3z" transform="matrix(1, 0, 0, 1, -12.03, -7.89)"/>
  <path class="cls-1" d="M172.38 49.82h-16.43V26.91h16.11v4.99h-10.39v3.83h9.37v5.02h-9.37v3.86h10.71v5.21z"/>
  <path class="cls-1" d="M185.72 49.82h6.1v.09c0 2.18 1.09 3.33 3.61 3.33 2.11 0 3-1 3-2.3 0-1.83-2.33-2.21-4.95-2.78-3.42-.77-7.29-1.86-7.29-6.81 0-4 2.94-7 8.79-7S203.9 37 204 41.83h-5.85c-.1-1.92-1-2.81-3.23-2.81-2 0-2.75 1-2.75 2.08 0 1.69 2.21 2 4.8 2.58 3.48.8 7.41 2 7.44 7 0 4.48-3.1 7.51-9.1 7.51-7.1 0-9.49-3-9.56-8.37M205.31 49.82h6.1v.09c0 2.18 1.09 3.33 3.62 3.33 2.1 0 3-1 3-2.3 0-1.83-2.33-2.21-4.95-2.78-3.42-.77-7.29-1.86-7.29-6.81 0-4 2.94-7 8.79-7s8.89 2.66 8.95 7.51h-5.85c-.1-1.92-1-2.81-3.23-2.81-2 0-2.75 1-2.75 2.08 0 1.69 2.21 2 4.8 2.58 3.48.8 7.41 2 7.44 7 0 4.48-3.1 7.51-9.1 7.51-7.1 0-9.49-3-9.56-8.37" transform="matrix(1, 0, 0, 1, -12.03, -7.89)"/>
</svg>
