<svg xmlns="http://www.w3.org/2000/svg" viewBox="0 0 32 32"><defs><style>.cls-1{fill:#0076ad;}.cls-2{fill:#fff;}</style></defs><g id="bkgd-0076AD"><rect class="cls-1" width="32" height="32"/></g><g id="RSS"><path class="cls-2" d="M25.43,24.53a.77.77,0,0,1-.24.63.8.8,0,0,1-.62.27H22.66a.81.81,0,0,1-.6-.24.77.77,0,0,1-.26-.57,15.18,15.18,0,0,0-1.35-5.47,15.58,15.58,0,0,0-3.11-4.5,15.48,15.48,0,0,0-4.5-3.1,15.09,15.09,0,0,0-5.47-1.36.84.84,0,0,1-.57-.26.86.86,0,0,1-.23-.59V7.43a.8.8,0,0,1,.27-.62.81.81,0,0,1,.59-.24h0a18.83,18.83,0,0,1,12.41,5.55,18.74,18.74,0,0,1,3.94,5.69A18.6,18.6,0,0,1,25.43,24.53Zm-6.86,0a.82.82,0,0,1-.23.65.81.81,0,0,1-.63.28h-1.8a.85.85,0,0,1-.58-.22.83.83,0,0,1-.27-.56,8.3,8.3,0,0,0-2.47-5.24,8.3,8.3,0,0,0-5.24-2.47.83.83,0,0,1-.56-.27.81.81,0,0,1-.22-.58v-1.8a.78.78,0,0,1,.28-.63.76.76,0,0,1,.58-.23h.06a11.7,11.7,0,0,1,4.1,1.08,11.69,11.69,0,0,1,3.47,2.43,11.69,11.69,0,0,1,2.43,3.47A12.15,12.15,0,0,1,18.57,24.5ZM11,21a2.57,2.57,0,0,1-1.82,4.39A2.57,2.57,0,1,1,11,21Z"/></g></svg>
